<svg width="14" height="15" viewBox="0 0 14 15" fill="none" xmlns="http://www.w3.org/2000/svg">
<path d="M4.54099 5.98468C4.30903 6.52418 2.68531 8.21972 2.83995 9.91527C3.45851 17.0057 5.62347 12.2274 8.87091 14C8.87091 14 14.6699 10.763 10.0307 5.52226C8.71627 3.67257 9.87608 2.20824 9.02556 0.97511C8.17503 -0.258016 6.70595 -0.335086 5.62347 0.820969C4.54099 1.97702 6.08739 3.67257 4.54099 5.98468Z" fill="#333333"/>
<path d="M10.7548 9.73139C10.7548 9.73139 11.4748 8.29053 10.1147 7.24991C11.3948 8.61072 10.5948 9.81144 10.5948 9.81144H10.3547C10.2747 7.00977 9.55471 8.53067 8.51466 3.56771C9.71472 2.2069 7.3946 1.00619 7.3946 3.24752H6.67457C6.75457 1.32638 5.07449 2.28695 6.03453 3.64776C5.95453 6.60953 4.19444 7.81024 4.19444 9.89148C3.63441 8.45062 4.67447 7.32996 4.67447 7.32996C4.67447 7.32996 3.23439 8.53067 4.11444 10.2917C4.99448 12.0528 6.59456 11.6525 5.47451 12.453C7.23459 13.6537 9.95473 12.8533 9.87473 10.2917C9.95473 9.65134 11.6348 9.89148 11.7948 10.0516C11.9548 10.2117 11.5548 9.73139 10.7548 9.73139ZM6.27455 3.48767C5.71452 3.32757 5.87453 2.60714 6.11454 2.60714C6.35455 2.60714 6.75457 3.16747 6.27455 3.48767ZM7.79462 3.56771C7.3946 3.00738 7.71462 2.44704 8.11464 2.52709C8.51466 2.60714 8.51466 3.56771 7.79462 3.56771Z" fill="#EEEEEE"/>
<path d="M3.86659 10.4206L5.57135 12.8404C6.46432 13.405 5.97724 15.6635 3.54187 14.5343C2.16183 14.131 1.02532 14.2116 0.862965 13.4857C0.700607 12.7598 1.18768 12.6791 1.1065 12.3565C0.781786 10.582 2.24301 11.4692 2.6489 10.582C3.0548 9.69471 3.0548 9.29141 3.86659 10.4206ZM12.9586 11.5499C12.6339 11.0659 12.9586 10.1787 11.8221 10.2593C11.3351 11.2272 9.95501 12.1951 9.87384 10.2593C9.06205 10.2593 9.6303 12.1951 9.30558 13.0824C8.57497 15.2602 10.6856 15.4215 11.5786 14.3729L13.6892 12.9211C13.8516 12.6791 14.0951 12.4371 12.9586 11.5499ZM5.49017 4.12923C5.24663 3.64527 6.38314 3 6.78903 3C7.19493 3 7.76318 3.32264 8.33143 3.48395C8.89969 3.64527 8.65615 4.20989 8.49379 4.29055C8.33143 4.3712 7.43847 5.09714 6.78903 5.09714C6.1396 5.09714 5.97724 4.45186 5.49017 4.12923Z" fill="#FFCC22"/>
<path fill-rule="evenodd" clip-rule="evenodd" d="M5.60634 4.14509C5.72533 4.22827 5.82418 4.3278 5.91268 4.42749C5.9569 4.47731 5.99937 4.52813 6.04029 4.5771L6.04917 4.58774C6.09324 4.64046 6.13562 4.6909 6.1789 4.73862C6.35049 4.92781 6.52338 5.06001 6.79798 5.06001C7.08546 5.06001 7.44237 4.89639 7.76135 4.70844C7.918 4.61614 8.06045 4.52113 8.1747 4.44349C8.19393 4.43042 8.21252 4.41774 8.2303 4.40561C8.26478 4.38208 8.29619 4.36065 8.32324 4.34259C8.36271 4.31622 8.39963 4.2924 8.42683 4.27891C8.43842 4.27316 8.47007 4.24556 8.50182 4.18798C8.53155 4.13407 8.55356 4.06752 8.55749 4.00121C8.56137 3.93577 8.54764 3.87423 8.51073 3.82227C8.47406 3.77065 8.40717 3.71816 8.2856 3.68369C8.06543 3.62127 7.84401 3.53437 7.63762 3.45337C7.57634 3.42932 7.51639 3.40579 7.45819 3.38358C7.19658 3.28373 6.97486 3.21239 6.79798 3.21239C6.7202 3.21239 6.59162 3.24512 6.43843 3.31027C6.28837 3.37409 6.12584 3.46423 5.98299 3.56818C5.83896 3.67299 5.72151 3.78709 5.65436 3.89672C5.59451 3.99442 5.58125 4.07579 5.60634 4.14509ZM6.35412 3.11505C6.5153 3.0465 6.67616 3 6.79798 3C7.02032 3 7.27766 3.08712 7.53503 3.18535C7.59735 3.20913 7.66002 3.23372 7.723 3.25843C7.9276 3.3387 8.13538 3.42021 8.3444 3.47947C8.50229 3.52424 8.61504 3.60049 8.68566 3.6999C8.75605 3.79898 8.77725 3.91076 8.77115 4.01368C8.7651 4.11574 8.73222 4.2126 8.68958 4.28992C8.64898 4.36356 8.59081 4.43501 8.52255 4.46887C8.50983 4.47519 8.48437 4.49098 8.44275 4.51878C8.41655 4.53628 8.38663 4.55669 8.3528 4.57978C8.33486 4.59202 8.31581 4.60502 8.29562 4.61873C8.18032 4.69708 8.03333 4.7952 7.87062 4.89107C7.55085 5.07948 7.14925 5.27239 6.79798 5.27239C6.43384 5.27239 6.20752 5.08767 6.01981 4.8807C5.97326 4.82938 5.92832 4.77583 5.88443 4.72333L5.87592 4.71314C5.83458 4.66367 5.79408 4.6152 5.75208 4.56789C5.66243 4.4669 5.56973 4.37563 5.46113 4.30379L5.43748 4.28814L5.42478 4.26292C5.34235 4.09934 5.38332 3.93029 5.47146 3.7864C5.55901 3.64348 5.70104 3.50998 5.85642 3.39691C6.01299 3.28297 6.18979 3.18494 6.35412 3.11505ZM2.95247 10.3053C2.91496 10.3923 2.87328 10.489 2.8234 10.5979C2.70828 10.8492 2.51625 10.9739 2.31267 11.0484C2.21268 11.0851 2.10855 11.1102 2.01006 11.1324C1.99256 11.1363 1.97529 11.1402 1.95823 11.144C1.87723 11.162 1.80116 11.179 1.7285 11.2004C1.55438 11.2518 1.42541 11.322 1.34934 11.4622C1.27069 11.6071 1.23611 11.8494 1.31368 12.2749C1.3399 12.3828 1.3176 12.472 1.27885 12.5505C1.26022 12.5882 1.23754 12.624 1.21591 12.657C1.21052 12.6653 1.20522 12.6733 1.19997 12.6813C1.18324 12.7066 1.16713 12.731 1.15102 12.7577C1.1101 12.8254 1.07402 12.9 1.05591 12.9961C1.03776 13.0926 1.03659 13.2166 1.0739 13.3832C1.13873 13.6727 1.39476 13.8182 1.8642 13.9372C2.04472 13.9829 2.24742 14.0226 2.47105 14.0664C2.53356 14.0787 2.59771 14.0912 2.66347 14.1043C2.96254 14.1639 3.29055 14.234 3.63445 14.3343L3.6422 14.3366L3.64951 14.34C4.23573 14.6115 4.69243 14.6735 5.03263 14.6174C5.37035 14.5618 5.60093 14.3887 5.73945 14.1715C5.87938 13.952 5.92759 13.6835 5.89001 13.4383C5.85238 13.1927 5.73074 12.9806 5.54288 12.862L5.52489 12.8506L3.83655 10.4572C3.83645 10.457 3.83635 10.4569 3.83625 10.4568C3.63688 10.1798 3.49321 10.0054 3.38444 9.90883C3.2714 9.80846 3.2321 9.82268 3.22035 9.82812C3.20649 9.83454 3.18518 9.85102 3.15672 9.89029C3.12871 9.92895 3.09917 9.98205 3.0658 10.0513C3.0295 10.1266 2.99348 10.2102 2.95247 10.3053ZM3.52715 9.75055C3.65537 9.86438 3.81102 10.0563 4.01071 10.3337L4.0113 10.3345L5.67619 12.6947C5.9163 12.8549 6.058 13.1218 6.10161 13.4064C6.14637 13.6984 6.08978 14.0192 5.92032 14.285C5.74945 14.553 5.46604 14.7613 5.0677 14.827C4.67344 14.8919 4.17447 14.8162 3.56639 14.5359C3.23439 14.4394 2.91631 14.3713 2.62132 14.3126C2.55771 14.2999 2.49497 14.2876 2.43329 14.2755C2.2086 14.2315 1.99807 14.1903 1.81125 14.143C1.34254 14.0242 0.959815 13.8528 0.864965 13.4293C0.822426 13.2393 0.82126 13.086 0.845523 12.9571C0.869833 12.828 0.918588 12.7293 0.96749 12.6484C0.98598 12.6178 1.00521 12.5887 1.02234 12.5627C1.02722 12.5553 1.03193 12.5482 1.0364 12.5414C1.0575 12.5091 1.07411 12.4824 1.08667 12.457C1.10987 12.41 1.11745 12.3716 1.10514 12.3227L1.1043 12.3194L1.10367 12.316C1.0223 11.8718 1.04762 11.5702 1.1609 11.3615C1.27695 11.1476 1.47235 11.0544 1.6675 10.9968C1.74784 10.9731 1.83248 10.9543 1.91361 10.9362C1.93011 10.9326 1.94647 10.9289 1.96262 10.9253C2.0603 10.9032 2.15267 10.8807 2.23856 10.8492C2.40675 10.7876 2.54407 10.6944 2.62856 10.51C2.67301 10.4129 2.7144 10.3172 2.75279 10.2284C2.79665 10.127 2.8366 10.0346 2.87271 9.95966C2.90795 9.88654 2.94391 9.82018 2.98295 9.7663C3.02155 9.71303 3.06886 9.6639 3.12984 9.63565C3.26781 9.57176 3.40316 9.64045 3.52715 9.75055ZM12.9462 11.4322C12.884 11.3335 12.8491 11.2118 12.8184 11.0722C12.8118 11.0421 12.8053 11.0109 12.7987 10.979C12.7747 10.863 12.7488 10.738 12.7069 10.626C12.6518 10.4781 12.5644 10.3379 12.4043 10.2435C12.2464 10.1504 12.0322 10.1104 11.7406 10.1311L11.6798 10.1354L11.6525 10.1895C11.5382 10.4165 11.3705 10.6448 11.1825 10.8302C10.9933 11.0168 10.7912 11.1522 10.6104 11.2047C10.4354 11.2555 10.2899 11.2279 10.1778 11.1025C10.0566 10.9668 9.95858 10.7001 9.93895 10.2326L9.93467 10.1308H9.83202C9.70881 10.1308 9.60444 10.1683 9.52134 10.2405C9.44049 10.3108 9.38731 10.4075 9.35131 10.5139C9.28025 10.7241 9.26591 11.0051 9.26591 11.2967C9.26591 11.4261 9.26866 11.5561 9.27141 11.6861C9.2751 11.8599 9.27878 12.0339 9.2759 12.2073C9.27094 12.5065 9.2459 12.7736 9.17255 12.9738L9.17206 12.9751L9.1716 12.9765C8.98746 13.5247 8.97692 13.9615 9.09494 14.291C9.21422 14.6241 9.46037 14.8346 9.75826 14.9331C10.3402 15.1256 11.1164 14.8932 11.5811 14.3572L13.6624 12.9274L13.6737 12.9105C13.6801 12.901 13.687 12.891 13.6942 12.8807C13.7692 12.7724 13.877 12.617 13.8069 12.3853C13.7708 12.2659 13.6902 12.1337 13.5526 11.9791C13.4168 11.8265 13.2211 11.6473 12.9462 11.4322ZM11.8153 10.3396C12.048 10.3301 12.1964 10.368 12.2949 10.4261C12.3993 10.4876 12.4616 10.5802 12.5062 10.6997C12.5418 10.7952 12.5633 10.8986 12.5868 11.0117C12.594 11.0461 12.6013 11.0813 12.6093 11.1176C12.642 11.2662 12.6852 11.4269 12.777 11.5636L12.7865 11.5777L12.7999 11.5882C13.0766 11.8039 13.2658 11.9777 13.3922 12.1197C13.519 12.2622 13.5781 12.3677 13.6019 12.4464C13.6416 12.5777 13.5912 12.652 13.5151 12.7639C13.5125 12.7678 13.5098 12.7717 13.5071 12.7758L11.4362 14.1984L11.427 14.2092C11.0123 14.6955 10.318 14.8944 9.82594 14.7316C9.58489 14.6519 9.39191 14.486 9.29661 14.2199C9.20013 13.9505 9.19949 13.5657 9.3742 13.045C9.46012 12.8096 9.4849 12.5128 9.48991 12.2108C9.49278 12.0376 9.48896 11.8525 9.48525 11.6726C9.48257 11.5424 9.47994 11.415 9.47994 11.2967C9.47994 11.004 9.49554 10.7551 9.55423 10.5815C9.5831 10.4961 9.61974 10.4374 9.6624 10.4003C9.68215 10.3831 9.70488 10.3691 9.73188 10.3592C9.76283 10.7784 9.8612 11.0682 10.0177 11.2433C10.1975 11.4447 10.4363 11.4765 10.6705 11.4085C10.8989 11.3422 11.1309 11.1805 11.3334 10.9808C11.5221 10.7948 11.6918 10.5692 11.8153 10.3396Z" fill="#333333"/>
<path d="M5.82959 4.33265C6.5153 4.99795 7.28673 5.55237 8.82959 4L5.82959 4.33265Z" fill="#FFCC22"/>
<path fill-rule="evenodd" clip-rule="evenodd" d="M7.01669 4.99826C6.53057 4.97463 6.15933 4.71382 5.82959 4.44936L5.96133 4.26152C6.28684 4.5226 6.6118 4.74354 7.02666 4.7637C7.44065 4.78383 7.9682 4.60434 8.69479 4L8.82959 4.18534C8.08186 4.80726 7.50367 5.02193 7.01669 4.99826Z" fill="#333333"/>
</svg>
