<svg width="152" height="20" viewBox="0 0 152 20" fill="none" xmlns="http://www.w3.org/2000/svg">
<path d="M151.459 11.062V19H147.409V12.142C147.409 10.99 146.905 10.414 145.897 10.414C145.015 10.414 144.403 10.765 144.061 11.467V19H140.011V12.115C140.011 10.981 139.534 10.414 138.58 10.414C137.752 10.414 137.113 10.738 136.663 11.386V19H132.613V6.85003H136.663V7.98403C137.563 7.08403 138.76 6.63403 140.254 6.63403C141.118 6.63403 141.847 6.79603 142.441 7.12003C143.053 7.44403 143.476 7.87603 143.71 8.41603C144.682 7.22803 145.987 6.63403 147.625 6.63403C150.181 6.63403 151.459 8.11003 151.459 11.062Z" fill="white"/>
<path d="M118.666 17.515C117.442 16.291 116.83 14.761 116.83 12.925C116.83 11.089 117.442 9.559 118.666 8.335C119.89 7.129 121.528 6.526 123.58 6.526C125.632 6.526 127.261 7.129 128.467 8.335C129.709 9.541 130.33 11.071 130.33 12.925C130.33 14.779 129.709 16.309 128.467 17.515C127.261 18.721 125.632 19.324 123.58 19.324C121.528 19.324 119.89 18.721 118.666 17.515ZM121.15 12.925C121.15 13.681 121.375 14.311 121.825 14.815C122.293 15.301 122.878 15.544 123.58 15.544C124.3 15.544 124.885 15.31 125.335 14.842C125.785 14.356 126.01 13.717 126.01 12.925C126.01 12.169 125.776 11.548 125.308 11.062C124.858 10.558 124.282 10.306 123.58 10.306C122.878 10.306 122.293 10.549 121.825 11.035C121.375 11.503 121.15 12.133 121.15 12.925Z" fill="white"/>
<path d="M114.131 14.194L116.021 17.164C114.959 18.604 113.303 19.324 111.053 19.324C109.037 19.324 107.417 18.739 106.193 17.569C104.987 16.417 104.384 14.869 104.384 12.925C104.384 11.107 104.978 9.595 106.166 8.389C107.39 7.147 108.938 6.526 110.81 6.526C113.024 6.526 114.68 7.102 115.778 8.254L113.915 11.44C113.159 10.684 112.295 10.306 111.323 10.306C110.603 10.306 109.982 10.549 109.46 11.035C108.956 11.521 108.704 12.151 108.704 12.925C108.704 13.699 108.974 14.329 109.514 14.815C110.09 15.301 110.711 15.544 111.377 15.544C112.367 15.544 113.285 15.094 114.131 14.194Z" fill="white"/>
<path d="M97.1923 16.408C97.1923 15.742 97.4533 15.157 97.9753 14.653C98.4973 14.131 99.1543 13.87 99.9463 13.87C100.648 13.87 101.242 14.131 101.728 14.653C102.232 15.157 102.484 15.742 102.484 16.408C102.484 17.164 102.241 17.812 101.755 18.352C101.287 18.892 100.684 19.162 99.9463 19.162C99.1363 19.162 98.4703 18.901 97.9483 18.379C97.4443 17.839 97.1923 17.182 97.1923 16.408Z" fill="white"/>
<path d="M91.2527 15.409C91.2527 15.085 90.4967 14.743 88.9847 14.383C88.4447 14.257 87.9587 14.113 87.5267 13.951C87.1127 13.789 86.6807 13.564 86.2307 13.276C85.7807 12.988 85.4297 12.61 85.1777 12.142C84.9437 11.656 84.8267 11.107 84.8267 10.495C84.8267 9.271 85.2677 8.308 86.1497 7.606C87.0317 6.886 88.1747 6.526 89.5787 6.526C91.7207 6.526 93.4217 7.075 94.6817 8.173L93.1697 11.035C92.0537 10.279 90.9377 9.901 89.8217 9.901C89.5517 9.901 89.3267 9.955 89.1467 10.063C88.9667 10.171 88.8767 10.297 88.8767 10.441C88.8767 10.657 89.0927 10.837 89.5247 10.981C89.9747 11.125 90.5147 11.278 91.1447 11.44C91.7747 11.584 92.4047 11.782 93.0347 12.034C93.6647 12.268 94.1957 12.655 94.6277 13.195C95.0777 13.735 95.3027 14.41 95.3027 15.22C95.3027 16.462 94.8257 17.461 93.8717 18.217C92.9357 18.955 91.6667 19.324 90.0647 19.324C88.8767 19.324 87.7337 19.081 86.6357 18.595C85.5377 18.073 84.8357 17.569 84.5297 17.083L86.4467 14.437C86.8247 14.815 87.4187 15.166 88.2287 15.49C89.0567 15.796 89.7587 15.949 90.3347 15.949C90.9467 15.949 91.2527 15.769 91.2527 15.409Z" fill="white"/>
<path d="M75.047 14.383V3.47498H79.097V6.84998H82.472V10.63H79.097V14.194C79.097 15.094 79.358 15.544 79.88 15.544C80.456 15.544 81.059 15.31 81.689 14.842L82.904 17.947C81.86 18.865 80.501 19.324 78.827 19.324C77.513 19.324 76.55 18.919 75.938 18.109C75.344 17.281 75.047 16.039 75.047 14.383Z" fill="white"/>
<path d="M68.9725 15.409C68.9725 15.085 68.2165 14.743 66.7045 14.383C66.1645 14.257 65.6785 14.113 65.2465 13.951C64.8325 13.789 64.4005 13.564 63.9505 13.276C63.5005 12.988 63.1495 12.61 62.8975 12.142C62.6635 11.656 62.5465 11.107 62.5465 10.495C62.5465 9.271 62.9875 8.308 63.8695 7.606C64.7515 6.886 65.8945 6.526 67.2985 6.526C69.4405 6.526 71.1415 7.075 72.4015 8.173L70.8895 11.035C69.7734 10.279 68.6575 9.901 67.5415 9.901C67.2715 9.901 67.0465 9.955 66.8665 10.063C66.6865 10.171 66.5965 10.297 66.5965 10.441C66.5965 10.657 66.8125 10.837 67.2445 10.981C67.6945 11.125 68.2345 11.278 68.8645 11.44C69.4945 11.584 70.1245 11.782 70.7545 12.034C71.3845 12.268 71.9155 12.655 72.3475 13.195C72.7975 13.735 73.0225 14.41 73.0225 15.22C73.0225 16.462 72.5455 17.461 71.5915 18.217C70.6555 18.955 69.3865 19.324 67.7845 19.324C66.5965 19.324 65.4535 19.081 64.3555 18.595C63.2575 18.073 62.5555 17.569 62.2495 17.083L64.1665 14.437C64.5445 14.815 65.1385 15.166 65.9485 15.49C66.7765 15.796 67.4785 15.949 68.0545 15.949C68.6665 15.949 68.9725 15.769 68.9725 15.409Z" fill="white"/>
<path d="M48.9771 17.515C47.7531 16.291 47.1411 14.761 47.1411 12.925C47.1411 11.089 47.7531 9.559 48.9771 8.335C50.2011 7.129 51.8391 6.526 53.8911 6.526C55.9431 6.526 57.5721 7.129 58.7781 8.335C60.0201 9.541 60.6411 11.071 60.6411 12.925C60.6411 14.779 60.0201 16.309 58.7781 17.515C57.5721 18.721 55.9431 19.324 53.8911 19.324C51.8391 19.324 50.2011 18.721 48.9771 17.515ZM51.4611 12.925C51.4611 13.681 51.6861 14.311 52.1361 14.815C52.6041 15.301 53.1891 15.544 53.8911 15.544C54.6111 15.544 55.1961 15.31 55.6461 14.842C56.0961 14.356 56.3211 13.717 56.3211 12.925C56.3211 12.169 56.0871 11.548 55.6191 11.062C55.1691 10.558 54.5931 10.306 53.8911 10.306C53.1891 10.306 52.6041 10.549 52.1361 11.035C51.6861 11.503 51.4611 12.133 51.4611 12.925Z" fill="white"/>
<path d="M37.1795 19H33.1295V0.0999756H37.1795V7.68698C37.9535 6.98498 38.9525 6.63398 40.1765 6.63398C41.7425 6.63398 42.9575 7.07498 43.8215 7.95698C44.6855 8.82098 45.1175 10.126 45.1175 11.872V19H41.0675V12.385C41.0675 11.791 40.8875 11.314 40.5275 10.954C40.1675 10.594 39.6995 10.414 39.1235 10.414C38.3495 10.414 37.7015 10.675 37.1795 11.197V19Z" fill="white"/>
<path d="M24.9184 10.63H19.7614V6.84998H30.5614V9.81998L24.9724 15.22H30.4264V19H19.3564V16.03L24.9184 10.63Z" fill="white"/>
<path d="M11.797 0.0999756H16.117V11.197C16.117 13.915 15.379 15.949 13.903 17.299C12.445 18.649 10.609 19.324 8.395 19.324C5.875 19.324 3.877 18.613 2.401 17.191C0.907004 15.751 0.160004 13.69 0.160004 11.008V0.0999756H4.48V10.09C4.48 13.546 5.785 15.274 8.395 15.274C9.601 15.274 10.465 14.869 10.987 14.059C11.527 13.249 11.797 12.007 11.797 10.333V0.0999756Z" fill="white"/>
</svg>
