<svg width="39" height="30" viewBox="0 0 39 30" fill="none" xmlns="http://www.w3.org/2000/svg">
<g clip-path="url(#clip0_11_456)">
<path d="M7.00129 29.9342V27.9432C7.00129 27.1816 6.53738 26.6829 5.74098 26.6829C5.34279 26.6829 4.9098 26.8143 4.61212 27.2473C4.38016 26.8839 4.04769 26.6829 3.54897 26.6829C3.2165 26.6829 2.88403 26.7834 2.62114 27.1468V26.7486H1.92526V29.9342H2.62114V28.1751C2.62114 27.6107 2.91882 27.344 3.38274 27.344C3.84665 27.344 4.07861 27.6416 4.07861 28.1751V29.9342H4.77449V28.1751C4.77449 27.6107 5.10696 27.344 5.53609 27.344C6 27.344 6.23196 27.6416 6.23196 28.1751V29.9342H7.00129ZM17.3235 26.7486H16.1946V25.786H15.4987V26.7486H14.8686V27.3787H15.4987V28.8401C15.4987 29.5708 15.7964 29.9999 16.5928 29.9999C16.8905 29.9999 17.2229 29.8994 17.4549 29.7679L17.2539 29.1687C17.0528 29.3001 16.8209 29.3349 16.6546 29.3349C16.3222 29.3349 16.1907 29.1339 16.1907 28.8053V27.3787H17.3196V26.7486H17.3235ZM23.2307 26.679C22.8325 26.679 22.5657 26.88 22.3995 27.1429V26.7447H21.7036V29.9303H22.3995V28.1365C22.3995 27.6068 22.6314 27.3053 23.0644 27.3053C23.1959 27.3053 23.3621 27.3401 23.4974 27.371L23.6985 26.7061C23.5593 26.679 23.3621 26.679 23.2307 26.679ZM14.3041 27.0115C13.9717 26.7795 13.5077 26.679 13.009 26.679C12.2126 26.679 11.683 27.0772 11.683 27.7074C11.683 28.237 12.0812 28.5385 12.7771 28.6352L13.1095 28.67C13.4729 28.7357 13.674 28.8362 13.674 29.0025C13.674 29.2344 13.4072 29.4007 12.9433 29.4007C12.4794 29.4007 12.1121 29.2344 11.8802 29.0682L11.5477 29.5978C11.9111 29.8646 12.4098 29.996 12.9085 29.996C13.8363 29.996 14.3699 29.563 14.3699 28.9677C14.3699 28.4032 13.9369 28.1056 13.2758 28.005L12.9433 27.9702C12.6456 27.9354 12.4137 27.8697 12.4137 27.6726C12.4137 27.4406 12.6456 27.3092 13.0129 27.3092C13.4111 27.3092 13.8093 27.4754 14.0103 27.5759L14.3041 27.0115ZM32.8183 26.679C32.4201 26.679 32.1534 26.88 31.9871 27.1429V26.7447H31.2912V29.9303H31.9871V28.1365C31.9871 27.6068 32.2191 27.3053 32.6521 27.3053C32.7835 27.3053 32.9497 27.3401 33.0851 27.371L33.2861 26.7138C33.1508 26.679 32.9536 26.679 32.8183 26.679ZM23.9266 28.3414C23.9266 29.304 24.5915 29.9999 25.6199 29.9999C26.0838 29.9999 26.4162 29.8994 26.7487 29.6365L26.4162 29.072C26.1495 29.2731 25.8866 29.3697 25.5851 29.3697C25.0206 29.3697 24.6224 28.9715 24.6224 28.3414C24.6224 27.7421 25.0206 27.344 25.5851 27.313C25.8827 27.313 26.1495 27.4135 26.4162 27.6107L26.7487 27.0463C26.4162 26.7795 26.0838 26.6829 25.6199 26.6829C24.5915 26.679 23.9266 27.3787 23.9266 28.3414ZM30.3634 28.3414V26.7486H29.6675V27.1468C29.4356 26.8491 29.1031 26.6829 28.6701 26.6829C27.7732 26.6829 27.0773 27.3787 27.0773 28.3414C27.0773 29.304 27.7732 29.9999 28.6701 29.9999C29.134 29.9999 29.4665 29.8336 29.6675 29.536V29.9342H30.3634V28.3414ZM27.808 28.3414C27.808 27.7769 28.1714 27.313 28.7706 27.313C29.3351 27.313 29.7333 27.746 29.7333 28.3414C29.7333 28.9058 29.3351 29.3697 28.7706 29.3697C28.1753 29.3349 27.808 28.9019 27.808 28.3414ZM19.4807 26.679C18.5528 26.679 17.8879 27.344 17.8879 28.3375C17.8879 29.3349 18.5528 29.996 19.5155 29.996C19.9794 29.996 20.4433 29.8646 20.8106 29.563L20.4781 29.0643C20.2113 29.2653 19.8789 29.3968 19.5503 29.3968C19.1173 29.3968 18.6882 29.1958 18.5876 28.6352H20.942C20.942 28.5347 20.942 28.469 20.942 28.3684C20.9729 27.344 20.3737 26.679 19.4807 26.679ZM19.4807 27.2782C19.9137 27.2782 20.2113 27.545 20.2771 28.0398H18.6186C18.6843 27.6107 18.982 27.2782 19.4807 27.2782ZM36.7693 28.3414V25.4883H36.0735V27.1468C35.8415 26.8491 35.509 26.6829 35.076 26.6829C34.1791 26.6829 33.4833 27.3787 33.4833 28.3414C33.4833 29.304 34.1791 29.9999 35.076 29.9999C35.54 29.9999 35.8724 29.8336 36.0735 29.536V29.9342H36.7693V28.3414ZM34.2139 28.3414C34.2139 27.7769 34.5773 27.313 35.1766 27.313C35.741 27.313 36.1392 27.746 36.1392 28.3414C36.1392 28.9058 35.741 29.3697 35.1766 29.3697C34.5773 29.3349 34.2139 28.9019 34.2139 28.3414ZM10.9175 28.3414V26.7486H10.2217V27.1468C9.9897 26.8491 9.65722 26.6829 9.22423 26.6829C8.32732 26.6829 7.63145 27.3787 7.63145 28.3414C7.63145 29.304 8.32732 29.9999 9.22423 29.9999C9.68815 29.9999 10.0206 29.8336 10.2217 29.536V29.9342H10.9175V28.3414ZM8.33119 28.3414C8.33119 27.7769 8.69459 27.313 9.29382 27.313C9.85825 27.313 10.2564 27.746 10.2564 28.3414C10.2564 28.9058 9.85825 29.3697 9.29382 29.3697C8.69459 29.3349 8.33119 28.9019 8.33119 28.3414Z" fill="#8D8D95"/>
<path d="M24.5258 2.55542H14.0722V21.3363H24.5258V2.55542Z" fill="#8E8E96"/>
<path d="M14.768 11.9459C14.768 8.13015 16.5619 4.74356 19.3144 2.55541C17.2887 0.962629 14.7332 0 11.9459 0C5.34278 0 0 5.34278 0 11.9459C0 18.549 5.34278 23.8918 11.9459 23.8918C14.7332 23.8918 17.2887 22.9291 19.3144 21.3363C16.558 19.1791 14.768 15.7616 14.768 11.9459Z" fill="#5B5A62"/>
<path d="M38.6289 11.9459C38.6289 18.549 33.2861 23.8918 26.683 23.8918C23.8956 23.8918 21.3402 22.9291 19.3144 21.3363C22.1018 19.1443 23.8608 15.7616 23.8608 11.9459C23.8608 8.13015 22.067 4.74356 19.3144 2.55541C21.3363 0.962629 23.8918 0 26.6791 0C33.2861 0 38.6289 5.37758 38.6289 11.9459Z" fill="#7F7E86"/>
</g>
<defs>
<clipPath id="clip0_11_456">
<rect width="38.6289" height="30" fill="white"/>
</clipPath>
</defs>
</svg>
