<svg width="58" height="22" viewBox="0 0 58 22" fill="none" xmlns="http://www.w3.org/2000/svg">
<g clip-path="url(#clip0_11_544)">
<path fill-rule="evenodd" clip-rule="evenodd" d="M34.6765 14.781C34.7729 14.8647 34.8491 14.9693 34.8994 15.0868C34.9497 15.2044 34.9725 15.3318 34.9666 15.4595C34.9666 16.1917 34.5437 16.5578 33.698 16.5578H26.4319C26.1635 16.5743 25.8996 16.4832 25.6982 16.3047C25.4968 16.1262 25.3744 15.8749 25.358 15.606C25.3558 15.5715 25.3555 15.537 25.357 15.5025C25.3574 15.3167 25.3957 15.133 25.4696 14.9626C25.5436 14.7922 25.6516 14.6388 25.7869 14.5118L31.7847 8.05061H27.1414C26.8378 8.07223 26.5367 7.98442 26.2922 7.80302C26.1942 7.71585 26.1172 7.60759 26.0669 7.48633C26.0167 7.36508 25.9944 7.23399 26.0019 7.10291C26.0019 6.38497 26.4247 6.02603 27.2702 6.02608H34.2142C34.3596 6.01908 34.5048 6.04335 34.6402 6.09719C34.7755 6.15107 34.8979 6.23331 34.999 6.33838C35.189 6.53838 35.2932 6.80521 35.2891 7.08145C35.2805 7.46152 35.1265 7.82381 34.859 8.09354L28.8825 14.5333H33.8271C34.1307 14.5121 34.4317 14.5999 34.6765 14.781Z" fill="#7F7E86"/>
<path fill-rule="evenodd" clip-rule="evenodd" d="M45.4469 11.5288C45.3637 11.6113 45.2644 11.6758 45.1552 11.7184C45.0463 11.7609 44.9297 11.7807 44.8125 11.7764H38.4277C38.4111 12.5713 38.6997 13.3423 39.234 13.9302C39.5169 14.1862 39.8482 14.3828 40.208 14.5087C40.5681 14.6345 40.9495 14.6868 41.3301 14.6627C41.7916 14.6681 42.2513 14.6064 42.6951 14.4795C43.1218 14.3494 43.5302 14.1648 43.9097 13.9302C44.0738 13.8361 44.2584 13.7843 44.4472 13.7796C44.5568 13.7747 44.666 13.7967 44.7653 13.8436C44.8646 13.8905 44.9509 13.9609 45.0168 14.0488C45.1563 14.2387 45.2283 14.47 45.2213 14.7056C45.2224 14.9088 45.1739 15.1091 45.0803 15.2893C44.9867 15.4694 44.8506 15.624 44.6836 15.7395C44.2167 16.0645 43.6964 16.305 43.1465 16.45C42.5004 16.6379 41.8307 16.7322 41.158 16.73C40.1816 16.7528 39.2143 16.5347 38.3419 16.0949C37.5592 15.691 36.9126 15.0656 36.4822 14.2964C36.0308 13.4646 35.8048 12.529 35.8263 11.5826C35.8084 10.5425 36.0368 9.51292 36.4928 8.57834C36.909 7.72608 37.5574 7.00923 38.3631 6.5107C39.1923 6.00794 40.1461 5.75029 41.1149 5.76748C41.7405 5.72895 42.3671 5.82646 42.9515 6.05326C43.5359 6.28006 44.0645 6.63084 44.5011 7.08148C45.3569 8.13478 45.7831 9.47356 45.694 10.8288C45.702 10.9561 45.6844 11.0838 45.6418 11.2041C45.5993 11.3244 45.533 11.4348 45.4469 11.5288ZM38.5138 10.3335H43.4153C43.4788 9.62318 43.28 8.91419 42.8561 8.34117C42.6523 8.11232 42.3996 7.93248 42.1167 7.81503C41.8338 7.69759 41.5282 7.64558 41.2225 7.66285C39.7033 7.66285 38.8003 8.55306 38.5138 10.3335Z" fill="#7F7E86"/>
<path fill-rule="evenodd" clip-rule="evenodd" d="M56.5118 6.72623C57.1732 7.51493 57.5009 8.53104 57.4254 9.55823C57.4254 9.83125 57.4184 10.0395 57.4042 10.183L56.974 15.3948C56.9691 15.5736 56.9287 15.7495 56.8548 15.9123C56.7809 16.075 56.6754 16.2213 56.5442 16.3425C56.2696 16.5781 55.9163 16.7012 55.5551 16.6874C55.3791 16.6982 55.2025 16.6732 55.0363 16.6139C54.8702 16.5547 54.7175 16.4624 54.5878 16.3425C54.4701 16.217 54.3822 16.0668 54.3301 15.9028C54.278 15.7389 54.2632 15.5653 54.2868 15.3948L54.7169 10.2907C54.8313 8.69676 54.2005 7.89975 52.8249 7.89969C52.4839 7.88054 52.143 7.93399 51.8241 8.05655C51.5055 8.1791 51.2164 8.36799 50.9758 8.61071C50.4996 9.16317 50.2263 9.86247 50.2019 10.5921L49.7936 15.3948C49.7887 15.5736 49.7482 15.7495 49.6743 15.9123C49.6007 16.075 49.4949 16.2213 49.3637 16.3425C49.0892 16.5781 48.7361 16.7012 48.3747 16.6874C48.2002 16.6989 48.0252 16.6743 47.8606 16.6149C47.6959 16.5556 47.5453 16.4628 47.418 16.3425C47.3032 16.2149 47.2163 16.0648 47.1626 15.9016C47.109 15.7384 47.0898 15.5658 47.1064 15.3948L47.7944 7.03838C47.7952 6.86681 47.8344 6.69754 47.9088 6.54294C47.9829 6.38837 48.0908 6.25231 48.2243 6.14472C48.511 5.91727 48.8691 5.79897 49.2346 5.81074C49.3993 5.80084 49.5639 5.82435 49.7192 5.87983C49.8742 5.93531 50.0166 6.02165 50.1376 6.13365C50.2457 6.2465 50.3256 6.38352 50.3704 6.53337C50.4153 6.68322 50.4239 6.84161 50.3953 6.99545L50.3741 7.40441C50.7394 6.882 51.2361 6.46591 51.8143 6.19856C52.4471 5.90464 53.138 5.75736 53.8354 5.76765C54.3234 5.73299 54.8134 5.80026 55.2741 5.96528C55.7348 6.1303 56.1563 6.38943 56.5118 6.72623Z" fill="#7F7E86"/>
<path fill-rule="evenodd" clip-rule="evenodd" d="M20.8811 6.59182C20.4767 5.96762 19.858 5.51361 19.142 5.31564C18.4259 5.11769 17.6624 5.18953 16.9957 5.5176C16.4356 5.80234 15.9792 6.25639 15.691 6.8154C15.4028 7.37444 15.2974 8.01012 15.3898 8.63247C15.4822 9.25482 15.7677 9.83227 16.2058 10.2831C16.6439 10.7339 17.2125 11.0352 17.831 11.1443C17.7777 12.8308 17.0666 14.4291 15.8504 15.5963C14.6342 16.7635 13.0097 17.4066 11.3256 17.3875C9.64151 17.3685 8.03195 16.6889 6.84234 15.4944C5.65273 14.3 4.97785 12.686 4.96253 10.9988C4.9595 9.69782 5.35515 8.42727 6.09612 7.35886C6.83705 6.29043 7.88752 5.47565 9.10557 5.02462C9.33732 4.94059 9.53063 4.77495 9.64945 4.55865C9.76829 4.34233 9.80448 4.09009 9.75134 3.84901L9.74408 3.81696C9.71496 3.68723 9.71162 3.55304 9.73428 3.42203C9.75694 3.291 9.80511 3.16576 9.87609 3.0534C9.94705 2.94104 10.0394 2.84379 10.1479 2.7672C10.2564 2.69061 10.3789 2.63617 10.5084 2.607C10.5528 2.59705 10.5979 2.59004 10.6432 2.58602C10.8936 2.56306 11.1454 2.55151 11.3986 2.55134C11.7117 2.55141 12.0246 2.56861 12.3358 2.60287C12.4696 2.61752 12.6049 2.60564 12.7341 2.56789C12.8633 2.53015 12.9838 2.46729 13.0887 2.38289C13.1936 2.29849 13.2809 2.19421 13.3456 2.07601C13.4103 1.95781 13.4511 1.828 13.4657 1.69399C13.4677 1.67533 13.4694 1.65683 13.4702 1.63833C13.4775 1.3691 13.3818 1.10727 13.2025 0.906542C13.0233 0.705813 12.7742 0.581405 12.5063 0.558842C10.398 0.334302 8.27128 0.755635 6.40697 1.7672C4.54266 2.77877 3.02841 4.33302 2.06417 6.2247C1.09993 8.11639 0.731032 10.2566 1.00619 12.3627C1.28134 14.4688 2.18761 16.4418 3.60533 18.0211C5.02304 19.6005 6.88556 20.7119 8.94693 21.2087C11.0083 21.7056 13.1716 21.5644 15.1512 20.8038C17.1308 20.0432 18.8336 18.699 20.0348 16.9488C21.236 15.1984 21.8791 13.1243 21.8791 11.0003C21.8791 9.9738 21.673 7.76082 20.8811 6.59182Z" fill="#7F7E86"/>
<path fill-rule="evenodd" clip-rule="evenodd" d="M15.3516 1.29785C15.5663 1.29784 15.7762 1.36161 15.9547 1.48112C16.1333 1.60062 16.2725 1.7705 16.3547 1.96925C16.4368 2.168 16.4583 2.38669 16.4164 2.59768C16.3746 2.80868 16.2711 3.00249 16.1193 3.1546C15.9675 3.30673 15.774 3.41031 15.5634 3.45228C15.3528 3.49425 15.1345 3.47271 14.9361 3.39037C14.7377 3.30803 14.5682 3.16863 14.4489 2.98974C14.3296 2.81086 14.2659 2.60056 14.266 2.38543C14.266 2.09699 14.3804 1.82038 14.5839 1.61642C14.7875 1.41247 15.0636 1.29788 15.3516 1.29785Z" fill="#7F7E86"/>
</g>
<defs>
<clipPath id="clip0_11_544">
<rect width="56.5185" height="21" fill="white" transform="translate(0.917542 0.5)"/>
</clipPath>
</defs>
</svg>
