<svg width="70" height="26" viewBox="0 0 70 26" fill="none" xmlns="http://www.w3.org/2000/svg">
<path d="M10.2389 5.61279H5.05783C4.70328 5.61279 4.40176 5.87037 4.34646 6.22037L2.25101 19.506C2.20934 19.7681 2.41237 20.0045 2.67828 20.0045H5.15176C5.50631 20.0045 5.80783 19.7469 5.86313 19.3961L6.42828 15.8128C6.48283 15.462 6.7851 15.2045 7.13889 15.2045H8.77904C12.1919 15.2045 14.1616 13.5529 14.676 10.2802C14.9078 8.8484 14.6859 7.7234 14.0154 6.93552C13.279 6.07037 11.973 5.61279 10.2389 5.61279ZM10.8366 10.4651C10.5533 12.3242 9.13283 12.3242 7.75934 12.3242H6.97752L7.52601 8.85219C7.55858 8.64234 7.7404 8.48779 7.95252 8.48779H8.31086C9.24646 8.48779 10.129 8.48779 10.5851 9.02113C10.8571 9.33931 10.9404 9.81204 10.8366 10.4651Z" fill="#5B5A62"/>
<path d="M25.726 10.4055H23.245C23.0336 10.4055 22.851 10.56 22.8184 10.7698L22.7086 11.4638L22.5351 11.2123C21.998 10.4327 20.8003 10.1721 19.6048 10.1721C16.8631 10.1721 14.5215 12.2486 14.0654 15.1615C13.8283 16.6145 14.1654 18.0039 14.9896 18.9729C15.7457 19.8638 16.8275 20.235 18.1146 20.235C20.3237 20.235 21.5487 18.8145 21.5487 18.8145L21.4381 19.5039C21.3965 19.7676 21.5995 20.0039 21.8639 20.0039H24.0987C24.454 20.0039 24.754 19.7464 24.8101 19.3956L26.151 10.9039C26.1934 10.6426 25.9912 10.4055 25.726 10.4055ZM22.2677 15.2342C22.0283 16.6517 20.9033 17.6032 19.4684 17.6032C18.748 17.6032 18.1722 17.3721 17.8025 16.9342C17.4359 16.4994 17.2965 15.8805 17.4131 15.1911C17.6366 13.7858 18.7806 12.8032 20.1934 12.8032C20.898 12.8032 21.4707 13.0373 21.848 13.4789C22.226 13.9251 22.376 14.5479 22.2677 15.2342Z" fill="#5B5A62"/>
<path d="M38.9397 10.4053H36.4465C36.2086 10.4053 35.9851 10.5235 35.8503 10.7212L32.4116 15.7863L30.954 10.9189C30.8624 10.6144 30.5813 10.4053 30.2631 10.4053H27.8131C27.5154 10.4053 27.3086 10.6962 27.4033 10.9765L30.1495 19.0356L27.5677 22.6803C27.3646 22.9674 27.5692 23.3621 27.92 23.3621H30.4101C30.6465 23.3621 30.8677 23.2469 31.0018 23.053L39.2942 11.0833C39.4927 10.7969 39.2889 10.4053 38.9397 10.4053Z" fill="#5B5A62"/>
<path d="M47.1942 5.61279H42.0124C41.6586 5.61279 41.3571 5.87037 41.3018 6.22037L39.2063 19.506C39.1646 19.7681 39.3677 20.0045 39.6321 20.0045H42.2912C42.5381 20.0045 42.7495 19.8242 42.7881 19.5787L43.3828 15.8128C43.4374 15.462 43.7396 15.2045 44.0934 15.2045H45.7328C49.1465 15.2045 51.1154 13.5529 51.6306 10.2802C51.8631 8.8484 51.6396 7.7234 50.9692 6.93552C50.2336 6.07037 48.9283 5.61279 47.1942 5.61279ZM47.7919 10.4651C47.5093 12.3242 46.0889 12.3242 44.7146 12.3242H43.9336L44.4828 8.85219C44.5154 8.64234 44.6957 8.48779 44.9086 8.48779H45.2669C46.2018 8.48779 47.0851 8.48779 47.5412 9.02113C47.8131 9.33931 47.8957 9.81204 47.7919 10.4651Z" fill="#7F7E86"/>
<path d="M62.6806 10.4055H60.201C59.9881 10.4055 59.8071 10.56 59.7753 10.7698L59.6654 11.4638L59.4912 11.2123C58.954 10.4327 57.7571 10.1721 56.5616 10.1721C53.82 10.1721 51.479 12.2486 51.023 15.1615C50.7866 16.6145 51.1222 18.0039 51.9465 18.9729C52.704 19.8638 53.7843 20.235 55.0715 20.235C57.2806 20.235 58.5056 18.8145 58.5056 18.8145L58.395 19.5039C58.3533 19.7676 58.5563 20.0039 58.8222 20.0039H61.0563C61.4101 20.0039 61.7116 19.7464 61.7669 19.3956L63.1086 10.9039C63.1495 10.6426 62.9465 10.4055 62.6806 10.4055ZM59.2222 15.2342C58.9844 16.6517 57.8578 17.6032 56.423 17.6032C55.704 17.6032 55.1268 17.3721 54.7571 16.9342C54.3904 16.4994 54.2525 15.8805 54.3677 15.1911C54.5927 13.7858 55.7351 12.8032 57.148 12.8032C57.8525 12.8032 58.4253 13.0373 58.8025 13.4789C59.1821 13.9251 59.3321 14.5479 59.2222 15.2342Z" fill="#7F7E86"/>
<path d="M65.6055 5.97721L63.479 19.506C63.4374 19.7681 63.6404 20.0045 63.9048 20.0045H66.0427C66.398 20.0045 66.6995 19.7469 66.754 19.3962L68.851 6.1113C68.8927 5.84918 68.6896 5.61206 68.4252 5.61206H66.0313C65.8199 5.61282 65.6381 5.76736 65.6055 5.97721Z" fill="#7F7E86"/>
</svg>
