<svg width="53" height="16" viewBox="0 0 53 16" fill="none" xmlns="http://www.w3.org/2000/svg">
<g clip-path="url(#clip0_11_475)">
<path d="M12.1638 5.08582H8.67362C8.67362 4.51303 8.60625 4.12873 8.47218 3.93293C8.26443 3.64355 7.69131 3.49853 6.75314 3.49853C5.84185 3.49853 5.23787 3.58182 4.94317 3.74875C4.64848 3.91634 4.5008 4.28039 4.5008 4.8409C4.5008 5.34832 4.63156 5.68283 4.89339 5.84279C5.0809 5.95662 5.32879 6.02332 5.63743 6.04323L6.3413 6.09301C7.84994 6.1929 8.79209 6.26359 9.16776 6.30374C10.3608 6.42388 11.2256 6.74114 11.7622 7.25519C12.1844 7.65641 12.4363 8.18075 12.5166 8.82788C12.5637 9.21516 12.5869 9.65355 12.5869 10.1404C12.5869 11.2627 12.4797 12.0844 12.2657 12.6051C11.8771 13.5609 11.0039 14.1645 9.64564 14.4181C9.0765 14.5253 8.20603 14.5787 7.03489 14.5787C5.08023 14.5787 3.71828 14.4625 2.94902 14.2286C2.00521 13.9422 1.38264 13.3618 1.08164 12.488C0.913722 12.0015 0.830757 11.1911 0.830757 10.0568H4.32093C4.32093 10.1832 4.32127 10.2801 4.32127 10.3468C4.32127 10.9521 4.49516 11.3411 4.84262 11.5146C5.08322 11.6341 5.3736 11.6968 5.71508 11.7044H6.99839C7.65315 11.7044 8.07096 11.6709 8.25116 11.6036C8.57207 11.4775 8.7828 11.2744 8.88335 10.9933C8.93678 10.82 8.96333 10.5964 8.96333 10.3222C8.96333 9.70863 8.73933 9.33529 8.29198 9.20122C8.12439 9.14845 7.34651 9.07445 5.95734 8.9812C4.84162 8.90155 4.06673 8.82489 3.63299 8.75055C2.49039 8.53683 1.72877 8.09712 1.34879 7.42975C1.01461 6.86293 0.847682 6.00507 0.847682 4.85716C0.847682 3.98338 0.937948 3.28249 1.11848 2.75549C1.29901 2.22817 1.59005 1.82794 1.99161 1.55416C2.57999 1.13369 3.33299 0.887117 4.24925 0.813444C5.01187 0.74674 5.85778 0.712891 6.78832 0.712891C8.25315 0.712891 9.29718 0.797183 9.91942 0.964109C11.4383 1.3723 12.1976 2.51523 12.1976 4.39356C12.1976 4.54754 12.1864 4.77785 12.1638 5.08582Z" fill="#7F7E86"/>
<path d="M27.5119 14.5789V0.639404H32.98H33.8381H34.5015C35.4603 0.639404 36.1917 0.717392 36.6945 0.87403C37.844 1.2341 38.6153 1.97182 39.0105 3.08621C39.2143 3.67128 39.3165 4.55204 39.3165 5.72815C39.3165 7.14221 39.2033 8.15804 38.9793 8.77696C38.531 10.0002 37.6084 10.7051 36.2149 10.8876C36.051 10.9151 35.3537 10.9394 34.1229 10.9593L33.5003 10.9798H31.2636V14.5789H27.5119ZM31.2636 7.7462H33.6022C34.3439 7.71965 34.7949 7.66257 34.9572 7.5733C35.1789 7.45151 35.3279 7.20726 35.4019 6.84121C35.4493 6.59763 35.4729 6.23524 35.4729 5.75404C35.4729 5.16432 35.4258 4.72726 35.3312 4.44186C35.1964 4.04197 34.8732 3.79872 34.3615 3.71011C34.2599 3.69684 34.0177 3.68953 33.6337 3.68953H31.2636V7.7462Z" fill="#7F7E86"/>
<path d="M47.3246 12.1699H42.3086L41.6346 14.5789H37.7531L41.9415 0.639404H47.6008L51.8403 14.5789H48.0405L47.3246 12.1699ZM46.5796 9.45428L44.8218 3.41177L43.116 9.45428H46.5796Z" fill="#7F7E86"/>
<path d="M22.3338 2.60036C23.8809 2.60036 25.2621 3.3132 26.1697 4.42958L26.9785 2.69561C25.7138 1.50025 23.9924 0.763184 22.0938 0.763184C19.1376 0.763184 16.6088 2.54859 15.5711 5.07604H13.9941L13.0629 7.07218H15.0916C15.0763 7.25736 15.0663 7.44254 15.0663 7.6317C15.0663 7.86035 15.0783 8.08668 15.1009 8.31002H14.0814L13.1505 10.3068H15.6196C16.6868 12.7702 19.1841 14.4996 22.0938 14.4996C23.5603 14.4996 24.9209 14.0602 26.0476 13.3095V10.8624C25.1403 11.8954 23.8132 12.5482 22.3338 12.5482C20.6044 12.5482 19.0832 11.6565 18.1974 10.3068H23.3672L24.2984 8.31002H17.4368C17.4013 8.06976 17.3824 7.82418 17.3824 7.57396C17.3824 7.40471 17.391 7.23745 17.4076 7.07218H24.8755L25.8063 5.07604H18.0531C18.9106 3.59628 20.5062 2.60036 22.3338 2.60036Z" fill="#5B5A62"/>
<path d="M22.3337 2.66026C23.8082 2.66026 25.1894 3.31934 26.1233 4.46758L26.1837 4.54191L26.2245 4.4553L27.0329 2.72133L27.0508 2.68183L27.02 2.65197C25.6905 1.39554 23.9409 0.703613 22.0938 0.703613C20.6512 0.703613 19.2634 1.12508 18.0796 1.92254C16.9238 2.70108 16.037 3.78394 15.516 5.05331L15.5711 5.01614H13.9941H13.9556L13.9397 5.05065L13.0088 7.04713L12.969 7.13242H13.0629H15.0916L15.0318 7.06737C15.0149 7.27478 15.0066 7.45897 15.0066 7.63187C15.0066 7.85587 15.0182 8.08651 15.0411 8.31616L15.1009 8.25045H14.0814H14.0435L14.0276 8.28497L13.0961 10.2814L13.0566 10.3667H13.1505H15.6195L15.5645 10.3306C16.6775 12.8995 19.2405 14.5595 22.0938 14.5595C23.5241 14.5595 24.9024 14.145 26.0808 13.3598L26.107 13.3422V13.3097V10.8625V10.7036L26.0025 10.823C25.0729 11.8813 23.7359 12.488 22.3337 12.488C20.6844 12.488 19.1568 11.66 18.2472 10.2738L18.1974 10.3667H23.3672H23.4057L23.4216 10.3325L24.3528 8.33541L24.3926 8.25045H24.2984H17.4368L17.4962 8.30156C17.4607 8.05963 17.4425 7.81538 17.4425 7.57412C17.4425 7.40985 17.4508 7.24326 17.4673 7.07832L17.4076 7.13242H24.8755H24.914L24.9299 7.0979L25.8608 5.10143L25.9009 5.01614H25.8063H18.0531L18.1049 5.10607C18.979 3.59744 20.5998 2.66026 22.3337 2.66026ZM18.0531 5.13594H25.8063L25.7519 5.05065L24.8214 7.04713L24.8755 7.01261H17.4076H17.3535L17.3475 7.06671C17.331 7.23529 17.3227 7.4062 17.3227 7.57412C17.3227 7.82103 17.3412 8.07191 17.3774 8.31915L17.3854 8.37025H17.4368H24.2984L24.2443 8.28497L23.3134 10.2814L23.3672 10.2469H18.1974H18.0863L18.1473 10.3392C19.0789 11.7602 20.6442 12.6074 22.3337 12.6074C23.77 12.6074 25.1403 11.9862 26.0927 10.902L25.9875 10.8625V13.3097L26.0141 13.2602C24.8556 14.0318 23.5002 14.4397 22.0938 14.4397C19.2879 14.4397 16.7684 12.8079 15.6746 10.2828L15.6587 10.2469H15.6195H13.1505L13.2053 10.3325L14.1358 8.33541L14.0814 8.37025H15.1009H15.1669L15.1606 8.30421C15.138 8.07855 15.1261 7.85189 15.1261 7.63187C15.1261 7.46262 15.1344 7.28109 15.1513 7.07733L15.1566 7.01261H15.0916H13.0629L13.117 7.0979L14.0482 5.10143L13.9941 5.13594H15.5711H15.6113L15.6262 5.09877C16.1389 3.85131 17.0104 2.78737 18.1467 2.02176C19.3102 1.23824 20.6754 0.823747 22.0938 0.823747C23.9104 0.823747 25.6301 1.50373 26.9373 2.73925L26.924 2.67022L26.116 4.40452L26.2165 4.39191C25.2591 3.21547 23.8444 2.54046 22.3337 2.54046C20.5566 2.54046 18.897 3.50053 18.001 5.04601L17.9489 5.13594H18.0531Z" fill="#7F7E86"/>
</g>
<defs>
<clipPath id="clip0_11_475">
<rect width="52.7059" height="16" fill="white" transform="translate(0.169952)"/>
</clipPath>
</defs>
</svg>
