<svg width="33" height="32" viewBox="0 0 33 32" fill="none" xmlns="http://www.w3.org/2000/svg">
<g clip-path="url(#clip0_11_541)">
<path d="M31.5543 12.2645C31.3721 11.5356 31.1291 10.8674 30.8861 10.1993C30.7647 9.95629 30.7039 9.77407 30.5824 9.59184C30.2787 8.92368 29.6106 7.83033 29.1854 7.28365C29.0639 7.10143 28.9424 6.9192 28.7602 6.73698L28.1528 6.00807C27.8491 5.64362 26.8772 4.7325 26.452 4.36804C26.0875 4.06434 25.7838 3.82137 25.4194 3.5784C23.3542 2.18134 21.1675 1.33095 18.677 1.02725C18.1911 0.966504 17.7659 0.905762 17.3407 0.905762H16.0044C15.7614 0.966504 15.397 0.966504 15.154 0.966504C13.8784 1.08799 12.6029 1.45244 11.4488 1.87763C10.9021 2.1206 10.2947 2.36357 9.86948 2.60653C9.74799 2.72802 9.68725 2.72802 9.56577 2.78876C9.44429 2.8495 9.38354 2.91024 9.26206 2.97098C9.14058 3.03172 9.07983 3.09247 8.95835 3.15321C8.29019 3.5784 8.04722 3.76063 7.31832 4.3073C6.95387 4.61101 6.65016 4.91472 6.34645 5.21843L5.67829 5.88659C5.55681 6.00807 5.55681 6.06882 5.43533 6.12956C5.31384 6.31178 5.19236 6.49401 5.01013 6.67623C4.88865 6.85846 4.76717 6.97994 4.64568 7.16217L3.91678 8.25552L3.43085 9.16665C3.18788 9.65258 2.88417 10.3207 2.70194 10.8067C2.58046 11.2926 2.39824 11.7178 2.27675 12.2037C2.15527 12.6897 2.03378 13.1756 1.97304 13.7223C1.85156 14.3297 1.79082 14.9371 1.79082 15.5445C1.79082 16.6379 1.79082 17.0631 1.9123 18.2172C2.15527 19.9179 2.70194 21.558 3.49159 23.0158C4.58494 25.1417 6.22497 27.0247 8.16871 28.3611C8.77613 28.7863 9.74799 29.3937 10.4769 29.6974C12.2384 30.487 14.3644 31.0944 16.3689 31.0944C18.0696 31.0944 18.92 31.0944 20.56 30.6692C21.8964 30.3655 22.929 29.8796 24.1438 29.2722C24.7512 28.9685 25.8446 28.2396 26.3305 27.8144C27.1809 27.0855 27.6668 26.6603 28.3957 25.7492C28.6994 25.3847 28.9424 25.081 29.1854 24.7166L29.732 23.9269C29.7928 23.8054 29.8535 23.7447 29.9143 23.6232C30.461 22.7121 30.7039 22.1047 31.0684 21.1328C31.2506 20.7076 31.3721 20.2217 31.4936 19.7357C32.1617 17.2453 32.1617 14.7549 31.5543 12.2645ZM28.4565 7.46588C28.6994 7.83033 28.9424 8.13404 29.1246 8.49849C29.3676 8.86294 29.5498 9.22739 29.732 9.59184C29.7928 9.71332 29.7928 9.77407 29.8535 9.89555L30.0965 10.503C30.1572 10.6245 30.1572 10.7459 30.218 10.8067H24.7512C24.6905 10.6852 24.6297 10.3207 24.6297 10.1993C24.569 10.017 24.5083 9.83481 24.4475 9.59184L24.0831 8.49849C23.8401 7.83033 23.5364 7.22291 23.1719 6.61549L23.1112 6.49401H27.7276C27.7276 6.61549 28.3957 7.40514 28.4565 7.46588ZM19.2845 1.81689C20.1956 1.93837 21.1675 2.24208 22.0178 2.54579L23.3542 3.15321C23.7186 3.33543 24.0223 3.51766 24.326 3.69988C25.2372 4.24656 25.7838 4.67175 26.5127 5.40066C26.695 5.52214 26.8772 5.64362 26.9987 5.76511H22.6253C22.3215 5.21843 20.9852 3.69988 20.4386 3.21395L20.3171 3.09247L19.7704 2.60653C19.6489 2.54579 19.5882 2.48505 19.4667 2.36357C19.3452 2.30282 19.2845 2.24208 19.163 2.1206L18.5556 1.69541C18.7985 1.75615 19.0415 1.81689 19.2845 1.81689ZM17.28 1.69541C17.3407 1.69541 17.8267 1.99911 17.9481 2.1206C18.1911 2.24208 19.2237 3.09247 19.4667 3.27469L19.7704 3.51766C19.9526 3.69988 20.1348 3.82137 20.3171 4.00359L21.7141 5.76511H17.28V1.69541ZM17.28 6.55475H22.2608C22.2608 6.67623 22.3216 6.67623 22.3823 6.79772L23.0505 8.01255C23.2327 8.377 23.3542 8.68071 23.5364 9.10591C23.6579 9.40961 24.0223 10.6245 24.0223 10.8674H17.28V6.55475ZM16.5511 1.69541V5.76511H12.1169C12.3599 5.33991 12.7851 4.97546 13.0888 4.61101L14.7288 3.09247C15.154 2.78876 15.5185 2.42431 15.9437 2.18134C16.0044 2.05986 16.4296 1.75615 16.5511 1.69541ZM16.5511 6.55475V10.8067H9.80874C9.80874 10.5637 10.0517 9.83481 10.1124 9.59184C10.2339 9.16665 10.3554 8.86294 10.5376 8.49849C10.7806 7.89107 10.9628 7.52662 11.2665 6.97994C11.3273 6.9192 11.5095 6.61549 11.5095 6.55475H16.5511ZM7.01461 5.58288L7.19684 5.40066C8.65464 4.00359 10.7199 2.91024 12.6636 2.24208C13.2103 2.05986 13.9392 1.93837 14.5466 1.81689C14.7896 1.75615 15.0325 1.75615 15.2755 1.75615C15.0325 1.93837 14.4859 2.30282 14.1214 2.60653C14.0607 2.66727 13.9999 2.66727 13.9392 2.72802C13.6355 2.97098 12.6636 3.88211 12.4814 4.12508L12.1169 4.55027C11.9347 4.7325 11.2665 5.58288 11.1451 5.88659H6.83239C6.89313 5.70436 6.95387 5.64362 7.01461 5.58288ZM4.03826 9.59184C4.09901 9.5311 4.09901 9.47036 4.15975 9.34887C4.22049 9.16665 4.28123 9.04516 4.40272 8.86294L4.94939 7.95181C5.07087 7.89107 5.86052 6.73698 6.04274 6.55475C6.10349 6.49401 6.16423 6.49401 6.34645 6.49401H10.6591C10.6591 6.55475 10.5984 6.67623 10.5376 6.73698C10.2339 7.28365 9.93022 7.89107 9.68725 8.49849C9.56577 8.86294 9.38354 9.22739 9.3228 9.59184C9.26206 9.83481 9.01909 10.5637 9.01909 10.8067H3.49159C3.61307 10.503 3.85604 9.95629 4.03826 9.59184ZM6.04274 25.4455C6.04274 25.3847 5.37458 24.5951 5.31384 24.4736L4.03826 22.3476C3.85604 21.9832 3.67381 21.4365 3.49159 21.1328H9.01909C9.01909 21.4365 9.20132 22.0439 9.3228 22.3476C9.74799 23.7447 10.6591 25.4455 10.6591 25.4455H6.04274ZM13.8784 30.0618C12.2992 29.6974 10.8413 29.1507 9.44429 28.3003C9.14058 28.1181 8.77613 27.8751 8.53316 27.6929C8.41167 27.5714 8.22945 27.4499 8.10797 27.3284C8.04722 27.2677 7.98648 27.207 7.865 27.1462C7.80426 27.0855 7.80426 27.0855 7.74352 27.0855L7.62203 26.964L7.43981 26.7818L7.25758 26.5995C7.1361 26.4781 6.95387 26.3566 6.89313 26.2351H11.2665C11.5095 26.6603 11.9954 27.207 12.3599 27.6322C12.4206 27.7536 12.5421 27.8144 12.6029 27.8751C12.9673 28.3611 14.1821 29.3937 14.7288 29.8189L15.3362 30.2441C14.8503 30.2441 14.1821 30.1226 13.8784 30.0618ZM16.5511 30.2441C16.2474 30.1833 15.0325 29.1507 14.6681 28.9077L14.3644 28.6648C14.0607 28.3611 13.5747 27.9966 13.271 27.6322L12.2992 26.4781C12.2384 26.3566 12.1777 26.2958 12.0562 26.1744H16.4903L16.5511 30.2441ZM16.5511 25.4455H11.5095C11.5095 25.3847 11.4488 25.324 11.388 25.2025C11.3273 25.1417 11.2665 25.0203 11.2665 24.9595L10.7199 23.9876C10.3554 23.3195 9.86948 21.8617 9.74799 21.1328H16.4903L16.5511 25.4455ZM21.7141 26.2351C21.4104 26.721 20.6815 27.5107 20.2563 27.9359C20.1348 28.0573 20.0741 28.1181 20.0134 28.2396L19.163 28.9685C18.8593 29.2114 17.5229 30.2441 17.28 30.3048V26.2351H21.7141ZM17.28 25.4455V21.1935H24.0223C24.0223 21.4972 23.6579 22.5906 23.5364 22.955C23.4756 23.1373 23.4149 23.3195 23.2934 23.5017C23.1112 23.9269 22.686 24.7773 22.3823 25.2632C22.3216 25.324 22.2608 25.3847 22.2608 25.5062H17.28V25.4455ZM26.1483 26.964L25.7231 27.3284C25.6016 27.4499 25.4194 27.5714 25.2979 27.6929C23.4756 28.9685 21.4712 29.8796 19.2845 30.2441C19.0415 30.3048 18.7985 30.3048 18.5556 30.3048L20.0134 29.2114C20.3171 28.9685 21.4104 27.8751 21.7749 27.3892L22.443 26.5388L22.5645 26.4173C22.6253 26.3566 22.6253 26.3566 22.686 26.2351H27.0594C26.8772 26.3566 26.3913 26.7818 26.1483 26.964ZM30.1572 21.4972L29.9143 22.1047C29.6106 22.7728 28.9424 23.9269 28.4565 24.5343L27.7276 25.5062H23.1112C23.8401 24.1699 24.0223 23.9269 24.4475 22.4084L24.7512 21.1935H30.218C30.2787 21.2543 30.218 21.3758 30.1572 21.4972ZM30.8254 19.432C30.7647 19.6142 30.7647 19.7965 30.7039 19.9787C30.6432 20.1002 30.5824 20.4039 30.5824 20.4646H3.24862L2.94491 19.432C2.88417 19.0676 2.76269 18.7031 2.70194 18.3387C2.6412 17.9742 2.58046 17.6098 2.58046 17.1846C2.58046 17.0023 2.51972 16.7594 2.51972 16.5771V15.9697C2.51972 14.6942 2.70194 13.2363 3.0664 12.0215C3.12714 11.8393 3.18788 11.6571 3.18788 11.5356H30.5217C30.5824 11.6571 30.6432 11.8393 30.6432 12.0215C30.8861 12.8112 31.0684 13.9045 31.1291 14.7549V15.9697C31.2506 17.1238 31.1291 18.3387 30.8254 19.432Z" fill="#7F7E86"/>
<path d="M9.86949 19.1281C10.5984 19.1281 10.4162 19.2496 10.7199 18.7029L11.2665 17.6703C11.3273 17.5488 11.3273 17.4881 11.388 17.4273C11.7525 16.8199 12.1777 15.848 12.5421 15.2406L12.6029 15.1799C12.6029 15.3621 12.6636 15.6051 12.6636 15.7265C12.6636 15.9695 12.6636 16.091 12.7244 16.2732L12.9673 18.8244C12.9673 19.1281 12.8458 19.0673 13.6962 19.0673C13.757 18.9459 14.7288 16.9414 14.9111 16.6984C14.9718 16.5769 15.0325 16.4554 15.0933 16.2732L16.1259 14.2687L16.3081 13.9043C16.4296 13.7221 16.7333 13.1146 16.8548 12.9932C16.9763 12.8717 16.9763 12.9932 16.9763 12.8109H15.7614C15.7614 13.2361 16.0044 12.9932 15.4577 14.208C15.397 14.3902 15.3363 14.5117 15.2148 14.6939L14.2429 16.5769C14.1822 16.6984 14.0607 17.0021 13.9999 17.0021C13.9999 16.5162 13.757 14.5724 13.757 13.965C13.757 13.6006 13.6962 13.2969 13.6962 12.9324H13.1495L11.3273 16.2732C11.2665 16.3947 10.9628 17.0021 10.9021 17.0021C10.9021 16.2125 10.5984 14.5117 10.5984 13.6006C10.5984 13.4791 10.5984 13.2969 10.6591 13.1754C10.7199 12.9932 10.8414 12.9932 10.8414 12.8109H9.0191C9.0191 13.0539 9.14059 12.9324 9.26207 13.4791L9.4443 15.0584C9.50504 15.7265 9.86949 18.8244 9.86949 19.1281ZM5.73904 14.208C5.73904 15.4228 8.10798 15.5443 8.10798 17.1843C8.10798 17.6095 8.04723 17.8525 7.92575 18.0955C7.80427 18.3384 7.68278 18.5207 7.50056 18.7029C7.31833 18.8851 7.07536 19.0066 6.8324 19.0673C6.16424 19.3103 5.31385 19.2496 4.58495 19.0673C4.46347 19.0066 4.28124 18.9459 4.15976 18.9459C3.61308 18.7029 3.85605 18.7029 4.03827 17.731C4.09902 17.6095 4.03827 17.5488 4.15976 17.4881C4.15976 17.8525 4.34198 18.217 4.52421 18.3992C4.82792 18.7636 5.25311 18.7636 5.73904 18.7636C6.28572 18.7636 6.71091 18.3992 6.8324 17.974C7.01462 17.0629 6.22498 16.6984 5.73904 16.2732C5.19237 15.848 4.58495 15.4228 4.58495 14.5724C4.58495 14.1473 4.76718 13.6613 5.01014 13.4791C5.25311 13.2361 5.55682 12.9932 5.92127 12.8717C6.22498 12.7502 6.52869 12.7502 6.89314 12.6895C7.19685 12.6895 8.10798 12.8109 8.41168 12.9932C8.41168 13.1754 8.16872 13.965 8.16872 14.0865H8.04723C8.04723 13.8435 7.86501 13.5398 7.68278 13.3576C7.5613 13.2969 7.50056 13.2361 7.31833 13.1754C6.58943 12.9932 5.73904 13.2969 5.73904 14.208ZM21.4712 13.1754C21.4712 13.5398 20.803 15.7873 20.6815 16.2125C20.4993 16.8806 20.2563 17.7918 20.0134 18.4599C19.9526 18.7029 19.8311 18.9459 19.5882 19.0066V19.1281H21.4712C21.4712 18.7636 21.1675 19.0673 21.7141 17.4273L22.0786 16.1517H23.1112C23.4149 16.2125 23.6579 16.2732 23.7186 16.5769C23.9008 16.5769 23.8401 16.4554 23.9616 16.0303C24.0223 15.848 24.0831 15.6051 24.1438 15.4228C23.9616 15.4228 24.0223 15.5443 23.7794 15.6051C23.5364 15.6658 22.5038 15.6658 22.2001 15.6658L22.7467 13.7221C22.8682 13.1754 22.9897 13.2969 23.9616 13.2969C24.2046 13.2969 24.4475 13.4184 24.569 13.5398C24.9335 13.9043 24.7512 13.965 24.9942 13.965C24.9942 13.8435 25.1157 13.5398 25.1764 13.3576C25.2372 13.2361 25.2372 13.1754 25.2979 13.0539C25.3586 12.9324 25.4194 12.8109 25.2979 12.8109H21.5319C21.3497 12.9932 21.4712 13.0539 21.4712 13.1754ZM25.2372 13.965C25.4801 13.965 25.3586 13.7221 25.9053 13.4184C26.2698 13.2361 26.5735 13.2969 27.0594 13.2969L25.7838 17.731C25.6624 18.0955 25.4801 18.9459 25.1764 19.0066V19.1281H26.9987C26.9987 18.7636 26.7557 19.1281 27.0594 18.0347C27.1202 17.7918 27.1809 17.6095 27.2416 17.3666L27.6061 16.0303C27.8491 15.2406 28.092 14.3295 28.335 13.4791C28.3957 13.2969 28.335 13.3576 28.9424 13.3576C29.3676 13.3576 29.7321 13.6613 29.8535 14.0258C30.0358 14.0258 29.975 13.8435 30.0965 13.5398C30.1572 13.4184 30.2787 13.0539 30.2787 12.9324H25.7231C25.6016 12.9324 25.5409 13.2361 25.4801 13.4791C25.3586 13.5398 25.2372 13.7828 25.2372 13.965ZM18.0089 13.1146C18.0089 13.4791 18.0089 13.3576 17.9481 13.7221L17.6444 14.8154C17.523 15.3014 16.6118 18.5814 16.3689 18.8244C16.2474 19.0066 16.1866 18.9459 16.1259 19.0673H18.0089C18.0089 18.7029 17.7659 19.0066 18.0696 17.9132L18.2519 17.1843C18.3733 16.6984 18.5556 16.2125 18.677 15.7265C18.8593 15.0584 19.1022 14.1473 19.3452 13.4791C19.406 13.2361 19.5274 12.9932 19.7704 12.9324V12.8109C17.28 12.8109 18.0089 12.7502 18.0089 13.1146Z" fill="#7F7E86"/>
</g>
<defs>
<clipPath id="clip0_11_541">
<rect width="32.0417" height="32" fill="white" transform="translate(0.875854)"/>
</clipPath>
</defs>
</svg>
