<svg width="53" height="18" viewBox="0 0 53 18" fill="none" xmlns="http://www.w3.org/2000/svg">
<path d="M34.7247 0.526123C31.0108 0.526123 27.6918 2.45137 27.6918 6.00761C27.6918 10.0864 33.578 10.3681 33.578 12.4174C33.578 13.2803 32.5895 14.0526 30.9004 14.0526C28.5039 14.0526 26.7127 12.9735 26.7127 12.9735L25.9461 16.5627C25.9461 16.5627 28.0096 17.4743 30.749 17.4743C34.8095 17.4743 38.005 15.4548 38.005 11.8373C38.005 7.52708 32.0942 7.25376 32.0942 5.35208C32.0942 4.67612 32.9057 3.93576 34.5896 3.93576C36.4897 3.93576 38.0395 4.72062 38.0395 4.72062L38.7899 1.25444C38.7899 1.25444 37.1028 0.526123 34.7242 0.526123H34.7247ZM0.745102 0.787919L0.655045 1.31099C0.655045 1.31099 2.21744 1.59687 3.62486 2.16759C5.43701 2.82155 5.56582 3.20273 5.87107 4.385L9.19641 17.2041H13.6543L20.5217 0.787919H16.0743L11.6615 11.9493L9.86085 2.48802C9.69592 1.40523 8.85921 0.787396 7.83559 0.787396H0.745626L0.745102 0.787919ZM22.3103 0.787919L18.8216 17.2041H23.0627L26.5388 0.787919H22.3103ZM45.9641 0.787919C44.9415 0.787919 44.3996 1.3356 44.0022 2.2922L37.7887 17.2041H42.2361L43.0964 14.7186H48.5145L49.0376 17.2041H52.9619L49.5387 0.787919H45.9641ZM46.5427 5.22327L47.8611 11.3833H44.3295L46.5432 5.22327H46.5427Z" fill="#7F7E86"/>
</svg>
