<svg width="14" height="13" viewBox="0 0 14 13" fill="none" xmlns="http://www.w3.org/2000/svg">
<g clip-path="url(#clip0_15_1134)">
<path d="M13.5717 11.607V11.9407C13.5374 12.0431 13.5203 12.1464 13.4813 12.2484C13.1695 13.0641 12.0592 13.2222 11.4283 12.6859L6.98936 8.26913L2.5247 12.7115C1.7782 13.2852 0.600427 12.9823 0.432711 11.9921C0.44298 11.8777 0.418678 11.7436 0.432711 11.6327C0.463516 11.3914 0.648345 11.096 0.804423 10.9136L5.23108 6.48587L0.765746 2.01951C-0.114246 0.839679 1.32229 -0.6126 2.5117 0.273211L6.98936 4.72691L11.3257 0.388216C12.5346 -0.642378 14.0632 0.752741 13.1976 2.02977L8.77501 6.48211L13.2513 10.9392C13.3923 11.1083 13.545 11.3876 13.5717 11.607Z" fill="#EF4444"/>
</g>
<defs>
<clipPath id="clip0_15_1134">
<rect width="13.1434" height="13" fill="white" transform="translate(0.428223 6.10352e-05)"/>
</clipPath>
</defs>
</svg>
